<svg version="1.1" xmlns="http://www.w3.org/2000/svg" xmlns:xlink="http://www.w3.org/1999/xlink" width="48" height="48"><defs><linearGradient x1="9.82524" y1="11.24272" x2="39.58897" y2="38.1715" gradientUnits="userSpaceOnUse" id="color-1"><stop offset="1" stop-color="#000000" stop-opacity="0.56"></stop><stop offset="1" stop-color="#000000" stop-opacity="0"></stop></linearGradient><filter id="dropshadow-base"><feColorMatrix type="matrix" values="0 0 0 0 0  0 0 0 0 0  0 0 0 0 0  0 0 0 .8 0"></feColorMatrix> <feOffset dx="0" dy="1"></feOffset> <feGaussianBlur stdDeviation="1"></feGaussianBlur> <feComposite in="SourceGraphic"></feComposite></filter><filter id="dropshadow-banner" x="-10%" y="-10%" width="120%" height="130%"><feColorMatrix type="matrix" values="0 0 0 0 0  0 0 0 0 0  0 0 0 0 0  0 0 0 .4 0"></feColorMatrix> <feOffset dx="0" dy="1"></feOffset> <feGaussianBlur stdDeviation="0.5"></feGaussianBlur> <feComposite in="SourceGraphic"></feComposite></filter></defs><g fill="none" fill-rule="nonzero" stroke="none" stroke-width="none" stroke-linecap="butt" stroke-linejoin="miter" stroke-miterlimit="10" stroke-dasharray="" stroke-dashoffset="0" font-family="none" font-weight="none" font-size="none" text-anchor="none" style="mix-blend-mode: normal"><path d="M2,24c0,-12.15026 9.84974,-22 22,-22c12.15026,0 22,9.84974 22,22c0,12.15026 -9.84974,22 -22,22c-12.15026,0 -22,-9.84974 -22,-22z" id="base 1 13" fill="#09d0eb" stroke-width="1"></path><path d="M27.20738,22.21009l1.41421,1.41421c0.82084,0.82084 1.32854,1.95482 1.32854,3.20738c0,2.50512 -2.0308,4.53592 -4.53592,4.53592c-1.25256,0 -2.38654,-0.5077 -3.20738,-1.32854l-1.41421,-1.41421c-0.82084,-0.82084 -1.32854,-1.95482 -1.32854,-3.20738c0,-2.50512 2.0308,-4.53592 4.53592,-4.53592c1.25256,0 2.38654,0.5077 3.20738,1.32854zM24,29.9534c2.50512,0 4.53592,-2.0308 4.53592,-4.53592c0,-0.8905 -0.25661,-1.72107 -0.69993,-2.42178c-0.70072,-0.44331 -1.53128,-0.69993 -2.42178,-0.69993c-2.50512,0 -4.53592,2.0308 -4.53592,4.53592c0,0.8905 0.25661,1.72107 0.69993,2.42178c0.70072,0.44331 1.53128,0.69993 2.42178,0.69993zM35.33981,14.07767c0.78316,0 1.49189,0.31716 2.00484,0.83011l1.41421,1.41421c0.51295,0.51295 0.83011,1.22169 0.83011,2.00484v17.00971c0,1.56631 -1.26864,2.83495 -2.83495,2.83495h-22.67961c-0.78316,0 -1.49189,-0.31716 -2.00484,-0.83011l-1.41421,-1.41421c-0.51295,-0.51295 -0.83011,-1.22169 -0.83011,-2.00484v-17.00971c0,-1.56631 1.26864,-2.83495 2.83495,-2.83495h4.4934l2.59398,-2.83495h8.50486l1.41421,1.41421l1.29998,1.42074zM21.16179,12.65693l-2.59398,2.83495h-4.4934c-1.56631,0 -2.83495,1.26864 -2.83495,2.83495v17.00971c0,0.41698 0.08991,0.81286 0.25141,1.16933c0.35647,0.1615 0.75235,0.25141 1.16933,0.25141h22.67961c1.56631,0 2.83495,-1.26864 2.83495,-2.83495v-17.00971c0,-0.41698 -0.08991,-0.81286 -0.25141,-1.16933c-0.35647,-0.1615 -0.75235,-0.25141 -1.16933,-0.25141h-4.4934l-1.41421,-1.41421l-1.29998,-1.42074zM25.41421,19.74431c-3.91223,0 -7.08738,3.17515 -7.08738,7.08738c0,1.59573 0.52825,3.06884 1.41929,4.25387c1.18503,0.89105 2.65814,1.41929 4.25387,1.41929c3.91223,0 7.08738,-3.17515 7.08738,-7.08738c0,-1.59573 -0.52825,-3.06884 -1.41929,-4.25387c-1.18503,-0.89105 -2.65814,-1.41929 -4.25387,-1.41929zM25.41421,33.91907c-1.95612,0 -3.72796,-0.79379 -5.01078,-2.0766l-1.41421,-1.41421c-1.28282,-1.28282 -2.0766,-3.05466 -2.0766,-5.01078c0,-3.91223 3.17515,-7.08738 7.08738,-7.08738c1.95612,0 3.72796,0.79379 5.01078,2.0766c0,0 0,0 0,0l0,0c0,0 0,0 0,0l1.41421,1.41421c1.28282,1.28282 2.0766,3.05466 2.0766,5.01078c0,3.91223 -3.17515,7.08738 -7.08738,7.08738z" fill="url(#color-1)" stroke-width="1"></path><path d="M19.46408,25.41748c0,-2.50512 2.0308,-4.53592 4.53592,-4.53592c2.50512,0 4.53592,2.0308 4.53592,4.53592c0,2.50512 -2.0308,4.53592 -4.53592,4.53592c-2.50512,0 -4.53592,-2.0308 -4.53592,-4.53592zM28.25243,11.24272l2.59398,2.83495h4.4934c1.56631,0 2.83495,1.26864 2.83495,2.83495v17.00971c0,1.56631 -1.26864,2.83495 -2.83495,2.83495h-22.67961c-1.56631,0 -2.83495,-1.26864 -2.83495,-2.83495v-17.00971c0,-1.56631 1.26864,-2.83495 2.83495,-2.83495h4.4934l2.59398,-2.83495zM31.08738,25.41748c0,-3.91223 -3.17515,-7.08738 -7.08738,-7.08738c-3.91223,0 -7.08738,3.17515 -7.08738,7.08738c0,3.91223 3.17515,7.08738 7.08738,7.08738c3.91223,0 7.08738,-3.17515 7.08738,-7.08738z" fill="none" stroke-width="0"></path><path d="M19.46408,25.41748c0,-2.50512 2.0308,-4.53592 4.53592,-4.53592c2.50512,0 4.53592,2.0308 4.53592,4.53592c0,2.50512 -2.0308,4.53592 -4.53592,4.53592c-2.50512,0 -4.53592,-2.0308 -4.53592,-4.53592zM28.25243,11.24272l2.59398,2.83495h4.4934c1.56631,0 2.83495,1.26864 2.83495,2.83495v17.00971c0,1.56631 -1.26864,2.83495 -2.83495,2.83495h-22.67961c-1.56631,0 -2.83495,-1.26864 -2.83495,-2.83495v-17.00971c0,-1.56631 1.26864,-2.83495 2.83495,-2.83495h4.4934l2.59398,-2.83495zM31.08738,25.41748c0,-3.91223 -3.17515,-7.08738 -7.08738,-7.08738c-3.91223,0 -7.08738,3.17515 -7.08738,7.08738c0,3.91223 3.17515,7.08738 7.08738,7.08738c3.91223,0 7.08738,-3.17515 7.08738,-7.08738z" fill="#ffffff" stroke-width="0"></path><path d="M2,24c0,-12.15026 9.84974,-22 22,-22c12.15026,0 22,9.84974 22,22c0,12.15026 -9.84974,22 -22,22c-12.15026,0 -22,-9.84974 -22,-22z" id="base 1 9 1" fill="none" stroke-width="1"></path><path d="M2,24c0,-12.15026 9.84974,-22 22,-22c12.15026,0 22,9.84974 22,22c0,12.15026 -9.84974,22 -22,22c-12.15026,0 -22,-9.84974 -22,-22z" id="base 1 5 1" fill="none" stroke-width="1"></path><path d="M2,24c0,-12.15026 9.84974,-22 22,-22c12.15026,0 22,9.84974 22,22c0,12.15026 -9.84974,22 -22,22c-12.15026,0 -22,-9.84974 -22,-22z" id="base 1 1 1" fill="none" stroke-width="1"></path><g fill="#000000" stroke-width="1" font-family="Roboto, sans-serif" font-weight="400" font-size="14" text-anchor="start"></g><rect x="2" y="2" width="44" height="22" fill="none" stroke-width="1"></rect><path d="M2,24v-22h44v22z" fill="none" stroke-width="1"></path><path d="M2,24v-22h44v22z" fill="none" stroke-width="1"></path><path d="M2,24v-22h44v22z" fill="none" stroke-width="1"></path><path d="M2,24v-22h44v22z" fill="none" stroke-width="1"></path><g fill="#000000" stroke-width="1" font-family="Roboto, sans-serif" font-weight="400" font-size="14" text-anchor="start"></g><rect x="2" y="2" width="44" height="22" fill="none" stroke-width="1"></rect><path d="M2,24v-22h44v22z" fill="none" stroke-width="1"></path><path d="M2,24v-22h44v22z" fill="none" stroke-width="1"></path><path d="M2,24v-22h44v22z" fill="none" stroke-width="1"></path><path d="M2,24v-22h44v22z" fill="none" stroke-width="1"></path><g fill="#000000" stroke-width="1" font-family="Roboto, sans-serif" font-weight="400" font-size="14" text-anchor="start"></g><rect x="2" y="2" width="44" height="22" fill="none" stroke-width="1"></rect><path d="M2,24v-22h44v22z" fill="none" stroke-width="1"></path><path d="M2,24v-22h44v22z" fill="none" stroke-width="1"></path><path d="M2,24v-22h44v22z" fill="none" stroke-width="1"></path><path d="M2,24v-22h44v22z" fill="none" stroke-width="1"></path></g></svg>